g GreenFelt_Table_Felt
v -0.5544455 -0.011094217 0.33074495
v -0.5543635 0.011094208 0.3007886
v -0.5543635 0.011094208 0.33055434
v -0.5544455 -0.011094217 0.30088323
v -0.5543635 0.011094208 -0.00017601013
v -0.5544455 -0.011094217 -0.00017601013
v -0.5543635 0.011094208 -0.30114058
v -0.5544455 -0.011094217 -0.30114454
v -0.5543635 0.011094208 -0.33090636
v -0.5544455 -0.011094217 -0.33093566
v -0.5155552 0.011094208 0.3007886
v -0.5155552 0.011094208 -0.00017601013
v -0.51555526 0.011094208 0.33055434
v -0.5543635 0.011094208 0.33055434
v -0.5155552 -0.011094246 0.33055434
v -0.5544455 -0.011094217 0.33074495
v 4.1007996E-05 -0.011094246 0.33055434
v 4.0969848E-05 0.011094208 0.33055434
v 0.5156345 -0.011094217 0.33074495
v 4.1007996E-05 0.011094208 0.3007886
v 0.51563716 0.011094208 0.33055434
v 0.55429006 -0.011094217 0.33074495
v 0.5544455 0.011094208 0.33055434
v 0.5156372 0.011094208 0.3007886
v 0.5544455 0.011094208 0.3007886
v 4.0969848E-05 0.011094208 -0.00017601013
v 0.5156371 0.011094208 -0.00017601013
v -0.51555514 0.011094208 -0.30114058
v -0.5543635 0.011094208 -0.33090636
v 4.0969848E-05 0.011094208 -0.30114058
v -0.5155552 0.011094208 -0.33090636
v -0.5544455 -0.011094217 -0.33093566
v -0.5153671 -0.011094217 -0.33093566
v 4.0969848E-05 0.011094208 -0.33090636
v -0.00019388199 -0.011094217 -0.33093566
v 0.5156371 0.011094208 -0.30114058
v 0.5156371 0.011094208 -0.33090636
v 0.5156345 -0.011094217 -0.33093566
v 0.55444545 0.011094208 -0.33090636
v 0.55429006 -0.011094217 -0.33093566
v 0.55444545 0.011094208 -0.30114058
v 0.55444545 0.011094208 -0.00017601013
v 0.55429006 -0.011094217 -0.30114454
v 0.55429006 -0.011094217 -0.33093566
v 0.55444545 0.011094208 -0.33090636
v 0.55429006 -0.011094217 -0.00017601013
v 0.55429006 -0.011094217 0.30088323
v 0.5544455 0.011094208 0.33055434
v 0.55429006 -0.011094217 0.33074495
v 0.5156345 -0.011094217 -0.33093566
v 0.55429006 -0.011094217 -0.30114454
v 0.55429006 -0.011094217 -0.33093566
v 0.5156318 -0.011094179 -0.30114844
v 0.55429006 -0.011094217 -0.00017601013
v -0.00042873382 -0.011094179 -0.30114844
v -0.00019388199 -0.011094217 -0.33093566
v 0.5156318 -0.011094179 -0.00017601013
v 0.55429006 -0.011094217 0.30088323
v -0.51517904 -0.011094179 -0.30114844
v -0.5153671 -0.011094217 -0.33093566
v -0.5544455 -0.011094217 -0.33093566
v -0.5544455 -0.011094217 -0.30114454
v -0.00042873382 -0.011094179 -0.00017601013
v 0.5156318 -0.011094179 0.30097786
v 0.55429006 -0.011094217 0.33074495
v 0.5156345 -0.011094217 0.33074495
v -0.00042873382 -0.011094179 0.3309356
v -0.5151791 -0.011094179 -0.00017601013
v -0.5544455 -0.011094217 -0.00017601013
v -0.00042873382 -0.011094179 0.30097786
v -0.5151791 -0.011094179 0.3309356
v -0.5151791 -0.011094179 0.30097786
v -0.5544455 -0.011094217 0.30088323
v -0.5544455 -0.011094217 0.33074495
vt 0.58124405 0.31826422
vt 0.5666245 0.30640337
vt 0.5666245 0.31826422
vt 0.58124405 0.30640337
vt 0.5666245 0.18647665
vt 0.58124405 0.18647665
vt 0.5666245 0.066549964
vt 0.58124405 0.066549934
vt 0.5666245 0.054689072
vt 0.58124405 0.054689035
vt 0.5489496 0.30640337
vt 0.5489496 0.18647665
vt 0.5489497 0.31826422
vt 0.5666245 0.31826422
vt 0.5489496 0.33105522
vt 0.5666245 0.33105522
vt 0.31412664 0.33105522
vt 0.31412664 0.31826416
vt 0.07930343 0.33105522
vt 0.31412664 0.30640337
vt 0.07930343 0.31826416
vt 0.061628602 0.33105522
vt 0.061628602 0.31826416
vt 0.07930343 0.30640322
vt 0.061628602 0.30640337
vt 0.31412664 0.18647668
vt 0.079303466 0.18647665
vt 0.5489496 0.06655001
vt 0.5666245 0.054689072
vt 0.31412664 0.06655001
vt 0.5489496 0.054689072
vt 0.5666245 0.041898016
vt 0.5489496 0.041898057
vt 0.31412664 0.054689072
vt 0.31412664 0.041898057
vt 0.07930343 0.06655004
vt 0.079303466 0.054689147
vt 0.07930343 0.041898087
vt 0.061628602 0.054689147
vt 0.061628528 0.041898157
vt 0.061628602 0.06655001
vt 0.061628602 0.18647665
vt 0.047009043 0.06655001
vt 0.047009043 0.054689072
vt 0.061628602 0.054689147
vt 0.047008947 0.18647665
vt 0.047008947 0.30640322
vt 0.061628602 0.31826416
vt 0.047008947 0.31826416
vt 0.6265974 0.039441615
vt 0.6503424 0.013161235
vt 0.6265974 0.013161235
vt 0.6503424 0.039441615
vt 0.810573 0.013161235
vt 0.6503424 0.30023995
vt 0.6265974 0.30023995
vt 0.810573 0.039441615
vt 0.9708039 0.013161235
vt 0.6503424 0.5610382
vt 0.6265974 0.5610382
vt 0.6265974 0.5873188
vt 0.6503424 0.5873188
vt 0.810573 0.30023995
vt 0.9708039 0.039441615
vt 0.9945488 0.013161235
vt 0.9945488 0.039441615
vt 0.9945488 0.30023995
vt 0.8105731 0.5610382
vt 0.8105731 0.5873188
vt 0.9708039 0.30023995
vt 0.9945488 0.5610382
vt 0.97080404 0.5610382
vt 0.97080404 0.5873188
vt 0.9945488 0.5873188
vn -0.7042497 0.008700669 0.70989907
vn -0.70579934 0.7084119 0
vn -0.5759168 0.5801137 0.5760104
vn -0.9999932 0.0036945972 0
vn -0.70579934 0.7084119 0
vn -0.9999932 0.0036945965 0
vn -0.70579934 0.7084119 0
vn -0.9999932 0.0036945972 0
vn -0.57625455 0.57866555 -0.57712823
vn -0.7076353 0.0035473756 -0.706569
vn -0 1 0
vn -0 1 0
vn -0 0.70710665 0.7071069
vn -0.5759168 0.5801137 0.5760104
vn 0.0008103332 0.0014172989 0.9999987
vn -0.7042497 0.008700669 0.70989907
vn -0.00018485544 0 1
vn -0.00012712594 0.7071483 0.70706517
vn -5.0614713E-06 0.008473064 0.9999641
vn -0 1 0
vn -0 0.7101375 0.704063
vn 0.7035903 0.0011767533 0.7106049
vn 0.5800133 0.57774377 0.57427937
vn -0 1 0
vn 0.7095788 0.704626 0
vn -0 1 0
vn -0 1 0
vn -0 1 0
vn -0.57625455 0.57866555 -0.57712823
vn -0 1 0
vn -0 0.7075736 -0.70663977
vn -0.7076353 0.0035473756 -0.706569
vn -0 0.0013203664 -0.99999917
vn -0 0.7075735 -0.7066398
vn -0 0.0013203665 -0.99999917
vn -0 1 0
vn -0 0.70757365 -0.7066397
vn -0 0.0013203666 -0.99999917
vn 0.57962346 0.5758524 -0.57656807
vn 0.70522004 -0.004003348 -0.7089772
vn 0.7095787 0.7046262 0
vn 0.7095788 0.704626 0
vn 0.99997544 -0.007003966 0
vn 0.70522004 -0.004003348 -0.7089772
vn 0.57962346 0.5758524 -0.57656807
vn 0.99997544 -0.007003966 0
vn 0.99997544 -0.007003966 0
vn 0.5800133 0.57774377 0.57427937
vn 0.7035903 0.0011767533 0.7106049
vn -2.8721294E-07 -1 1.0129622E-06
vn -6.9965483E-07 -1 2.6760162E-07
vn -0 -1 0
vn -4.934057E-07 -1 6.40323E-07
vn -9.867751E-07 -1 0
vn -0 -1 6.4032474E-07
vn -0 -1 1.2806491E-06
vn -4.9338763E-07 -1 0
vn -9.867733E-07 -1 0
vn 3.4321593E-07 -1 5.08049E-07
vn -0 -1 1.2806491E-06
vn 5.701174E-07 -1 5.291027E-07
vn 9.714906E-07 -1 0
vn -0 -1 0
vn -3.6765925E-07 -1 -4.950941E-07
vn -5.745599E-07 -1 -5.35338E-07
vn -0 -1 -1.2815108E-06
vn -0 -1 0
vn 4.8574583E-07 -1 0
vn 9.714917E-07 -1 0
vn -0 -1 0
vn 4.849938E-07 -1 0
vn 4.857458E-07 -1 0
vn 9.714915E-07 -1 0
vn 9.714917E-07 -1 0
g GreenFelt_Table_Felt_0
f 3/3/3 2/2/2 1/1/1
f 4/4/4 1/1/1 2/2/2
f 2/2/2 5/5/5 4/4/4
f 6/6/6 4/4/4 5/5/5
f 5/5/5 7/7/7 6/6/6
f 8/8/8 6/6/6 7/7/7
f 7/7/7 9/9/9 8/8/8
f 10/10/10 8/8/8 9/9/9
f 2/2/2 11/11/11 5/5/5
f 5/5/5 12/12/12 7/7/7
f 12/12/12 5/5/5 11/11/11
f 11/11/11 2/2/2 13/13/13
f 14/14/14 13/13/13 2/2/2
f 13/13/13 14/14/14 15/15/15
f 16/16/16 15/15/15 14/14/14
f 15/15/15 17/17/17 13/13/13
f 18/18/18 13/13/13 17/17/17
f 13/13/13 18/18/18 11/11/11
f 17/17/17 19/19/19 18/18/18
f 20/20/20 11/11/11 18/18/18
f 11/11/11 20/20/20 12/12/12
f 21/21/21 18/18/18 19/19/19
f 18/18/18 21/21/21 20/20/20
f 19/19/19 22/22/22 21/21/21
f 23/23/23 21/21/21 22/22/22
f 21/21/21 23/23/23 24/24/24
f 24/24/24 20/20/20 21/21/21
f 25/25/25 24/24/24 23/23/23
f 26/26/26 12/12/12 20/20/20
f 20/20/20 24/24/24 26/26/26
f 24/24/24 25/25/25 27/27/27
f 27/27/27 26/26/26 24/24/24
f 12/12/12 26/26/26 28/28/28
f 28/28/28 7/7/7 12/12/12
f 7/7/7 28/28/28 29/29/29
f 30/30/30 28/28/28 26/26/26
f 26/26/26 27/27/27 30/30/30
f 31/31/31 29/29/29 28/28/28
f 28/28/28 30/30/30 31/31/31
f 29/29/29 31/31/31 32/32/32
f 33/33/33 32/32/32 31/31/31
f 31/31/31 34/34/34 33/33/33
f 34/34/34 31/31/31 30/30/30
f 35/35/35 33/33/33 34/34/34
f 36/36/36 30/30/30 27/27/27
f 30/30/30 36/36/36 34/34/34
f 34/34/34 37/37/37 35/35/35
f 37/37/37 34/34/34 36/36/36
f 38/38/38 35/35/35 37/37/37
f 37/37/37 39/39/39 38/38/38
f 40/40/40 38/38/38 39/39/39
f 39/39/39 37/37/37 41/41/41
f 36/36/36 41/41/41 37/37/37
f 27/27/27 42/42/42 36/36/36
f 41/41/41 36/36/36 42/42/42
f 42/42/42 27/27/27 25/25/25
f 41/41/41 42/42/42 43/43/43
f 43/43/43 44/44/44 41/41/41
f 45/45/45 41/41/41 44/44/44
f 46/46/46 43/43/43 42/42/42
f 42/42/42 25/25/25 46/46/46
f 47/47/47 46/46/46 25/25/25
f 25/25/25 48/48/48 47/47/47
f 49/49/49 47/47/47 48/48/48
f 52/52/52 51/51/51 50/50/50
f 53/53/53 50/50/50 51/51/51
f 51/51/51 54/54/54 53/53/53
f 53/53/53 55/55/55 50/50/50
f 56/56/56 50/50/50 55/55/55
f 57/57/57 53/53/53 54/54/54
f 53/53/53 57/57/57 55/55/55
f 54/54/54 58/58/58 57/57/57
f 55/55/55 59/59/59 56/56/56
f 60/60/60 56/56/56 59/59/59
f 60/60/60 59/59/59 61/61/61
f 62/62/62 61/61/61 59/59/59
f 63/63/63 55/55/55 57/57/57
f 55/55/55 63/63/63 59/59/59
f 64/64/64 57/57/57 58/58/58
f 57/57/57 64/64/64 63/63/63
f 58/58/58 65/65/65 64/64/64
f 66/66/66 64/64/64 65/65/65
f 66/66/66 67/67/67 64/64/64
f 59/59/59 68/68/68 62/62/62
f 68/68/68 59/59/59 63/63/63
f 69/69/69 62/62/62 68/68/68
f 70/70/70 63/63/63 64/64/64
f 70/70/70 64/64/64 67/67/67
f 63/63/63 70/70/70 68/68/68
f 67/67/67 71/71/71 70/70/70
f 68/68/68 72/72/72 69/69/69
f 72/72/72 68/68/68 70/70/70
f 72/72/72 70/70/70 71/71/71
f 73/73/73 69/69/69 72/72/72
f 72/72/72 71/71/71 73/73/73
f 74/74/74 73/73/73 71/71/71
