g Tetrahedron
v -3.3268472E-05 0.040279232 0.59902173
v 0.034830615 -0.020107167 0.60941446
v -3.3268472E-05 2.1205946E-05 0.6364906
v 0.051682953 0.029879557 0.55854225
v -3.3268472E-05 0.5553385 -0.16560304
v 0.4724614 -0.21305731 -0.16022645
v 0.47862098 -0.27816835 -0.165603
v 0.051682953 0.51575315 -0.16022654
v -3.3268472E-05 0.5750989 -0.21735364
v 0.03550887 0.54198456 -0.2244945
v 0.48709172 -0.2401799 -0.22449447
v 0.4957342 -0.28804874 -0.21735361
v -0.034897152 -0.020107167 0.60941446
v -3.3268472E-05 0.040279232 0.59902173
v -3.3268472E-05 2.1205946E-05 0.6364906
v -0.05174949 0.029879557 0.55854225
v -0.47826892 -0.27816835 -0.16560303
v -0.05174949 0.51575315 -0.16022648
v -3.3268472E-05 0.5553385 -0.16560304
v -0.47252834 -0.21305731 -0.16022645
v -0.49538216 -0.28804874 -0.21735361
v -0.48715845 -0.2401799 -0.22449447
v -0.035575412 0.54198456 -0.2244945
v -3.3268472E-05 0.5750989 -0.21735364
v -0.45161608 -0.30174074 -0.22449447
v -0.48715845 -0.2401799 -0.22449447
v -0.49538216 -0.28804874 -0.21735361
v -0.41774005 -0.24114223 -0.24591717
v 0.45154935 -0.30174074 -0.22449447
v -3.3268472E-05 0.48234758 -0.2459172
v -0.035575412 0.54198456 -0.2244945
v 0.4176733 -0.24114223 -0.24591717
v 0.03550887 0.54198456 -0.2244945
v -3.3268472E-05 0.5750989 -0.21735364
v 0.48709172 -0.2401799 -0.22449447
v 0.4957342 -0.28804874 -0.21735361
v -0.47826892 -0.27816835 -0.16560303
v -0.45161608 -0.30174074 -0.22449447
v -0.49538216 -0.28804874 -0.21735361
v -0.4208121 -0.3026319 -0.16022645
v -0.034897152 -0.020107167 0.60941446
v 0.42074537 -0.3026319 -0.1602265
v 0.45154935 -0.30174074 -0.22449447
v 0.4957342 -0.28804874 -0.21735361
v 0.47862098 -0.27816835 -0.165603
v -3.3268472E-05 -0.059695505 0.55854225
v -3.3268472E-05 2.1205946E-05 0.6364906
v 0.034830615 -0.020107167 0.60941446
vt 0.91307855 0.60389733
vt 0.9013425 0.60519075
vt 0.90711415 0.6107436
vt 0.9071919 0.5950619
vt 0.98657894 0.47398514
vt 0.84051645 0.47211772
vt 0.83007914 0.47265238
vt 0.97617155 0.47340328
vt 0.9894005 0.4652797
vt 0.9815221 0.4633662
vt 0.835324 0.46200567
vt 0.8274043 0.46388656
vt 0.9140682 0.8487334
vt 0.90233076 0.8474536
vt 0.908303 0.8542933
vt 0.90820813 0.8386117
vt 0.9851856 0.71614194
vt 0.8390986 0.71702284
vt 0.8286916 0.7176157
vt 0.9747559 0.71559775
vt 0.987844 0.7073639
vt 0.9799365 0.70548224
vt 0.8337374 0.70699114
vt 0.8258606 0.70891297
vt 0.77628076 0.69547105
vt 0.7704911 0.6851564
vt 0.7689563 0.6930373
vt 0.78208685 0.68537986
vt 0.92232215 0.69548756
vt 0.8493713 0.5688136
vt 0.8434634 0.5588051
vt 0.9166235 0.6853651
vt 0.85528743 0.55881006
vt 0.84937394 0.55329615
vt 0.9282403 0.6852445
vt 0.9297029 0.6932103
vt 0.94067806 0.9562916
vt 0.935945 0.9668198
vt 0.9433939 0.96502835
vt 0.9307005 0.9567311
vt 0.86869615 0.82426876
vt 0.7950749 0.9567308
vt 0.7898298 0.96681964
vt 0.7823159 0.9650255
vt 0.7850351 0.9562914
vt 0.8628885 0.83445513
vt 0.86288875 0.81875104
vt 0.857081 0.82426834
vn 0.60031855 0.5689217 0.56209046
vn 0.7450725 0.36932877 0.55539465
vn 0.6932199 0.4910266 0.5275786
vn 0.73413086 0.4644482 0.49531776
vn 0.54062456 0.7557933 0.36946115
vn 0.92357904 0.28876165 0.25222695
vn 0.9393577 0.09837232 0.32852682
vn 0.7275969 0.6364036 0.2561116
vn 0.63296926 0.74707013 0.20306678
vn 0.76459455 0.64079434 0.069121815
vn 0.94852346 0.28353107 0.14111456
vn 0.93951255 0.2099902 0.27059248
vn -0.7469076 0.3696878 0.55268437
vn -0.60009897 0.5687079 0.5625412
vn -0.6932199 0.4910266 0.52757853
vn -0.7369918 0.46054015 0.49471796
vn -0.92391145 0.053005464 0.37891698
vn -0.7224566 0.64501655 0.24901852
vn -0.58656794 0.74477845 0.31818733
vn -0.9192663 0.2929077 0.26297256
vn -0.9672382 0.12755711 0.21949863
vn -0.9466941 0.3109092 0.084296145
vn -0.73759985 0.66211945 0.13245471
vn -0.685708 0.67999136 0.2596467
vn -0.15953447 -0.21840572 -0.96272933
vn -0.2702201 -0.027466994 -0.9624067
vn -0.19406329 -0.11204224 -0.9745696
vn -0.14939763 -0.08625666 -0.98500764
vn 0.15900317 -0.21799535 -0.9629101
vn -0 0.17250992 -0.98500776
vn -0.10921665 0.24382961 -0.9636487
vn 0.14939761 -0.086256534 -0.98500764
vn 0.109216616 0.24382947 -0.9636487
vn -0 0.21079743 -0.97752976
vn 0.2694684 -0.02740345 -0.96261925
vn 0.19193329 -0.110813 -0.97513187
vn -0.3607709 -0.876741 0.31807145
vn -0.20662616 -0.969102 0.13471083
vn -0.24929239 -0.93272936 0.26051718
vn -0.2010081 -0.94751906 0.24860288
vn -0.11781406 -0.8199514 0.5601782
vn 0.19046475 -0.9472755 0.25766703
vn 0.17377643 -0.98231757 0.06967054
vn 0.33314064 -0.920939 0.20220952
vn 0.38864765 -0.8435565 0.37062827
vn 0.0031049983 -0.8811498 0.47282693
vn -0 -0.79382104 0.60815144
vn 0.11817053 -0.8212911 0.55813676
g Tetrahedron_0
f 3/3/3 2/2/2 1/1/1
f 4/4/4 1/1/1 2/2/2
f 1/1/1 4/4/4 5/5/5
f 4/4/4 2/2/2 6/6/6
f 7/7/7 6/6/6 2/2/2
f 8/8/8 5/5/5 4/4/4
f 6/6/6 8/8/8 4/4/4
f 5/5/5 8/8/8 9/9/9
f 10/10/10 9/9/9 8/8/8
f 10/10/10 8/8/8 11/11/11
f 6/6/6 11/11/11 8/8/8
f 6/6/6 7/7/7 11/11/11
f 12/12/12 11/11/11 7/7/7
f 15/15/15 14/14/14 13/13/13
f 16/16/16 13/13/13 14/14/14
f 13/13/13 16/16/16 17/17/17
f 16/16/16 14/14/14 18/18/18
f 19/19/19 18/18/18 14/14/14
f 20/20/20 17/17/17 16/16/16
f 18/18/18 20/20/20 16/16/16
f 17/17/17 20/20/20 21/21/21
f 22/22/22 21/21/21 20/20/20
f 22/22/22 20/20/20 23/23/23
f 18/18/18 23/23/23 20/20/20
f 18/18/18 19/19/19 23/23/23
f 24/24/24 23/23/23 19/19/19
f 27/27/27 26/26/26 25/25/25
f 28/28/28 25/25/25 26/26/26
f 25/25/25 28/28/28 29/29/29
f 28/28/28 26/26/26 30/30/30
f 31/31/31 30/30/30 26/26/26
f 32/32/32 29/29/29 28/28/28
f 30/30/30 32/32/32 28/28/28
f 30/30/30 31/31/31 33/33/33
f 30/30/30 33/33/33 32/32/32
f 34/34/34 33/33/33 31/31/31
f 35/35/35 32/32/32 33/33/33
f 32/32/32 35/35/35 29/29/29
f 36/36/36 29/29/29 35/35/35
f 39/39/39 38/38/38 37/37/37
f 40/40/40 37/37/37 38/38/38
f 37/37/37 40/40/40 41/41/41
f 40/40/40 38/38/38 42/42/42
f 43/43/43 42/42/42 38/38/38
f 43/43/43 44/44/44 42/42/42
f 45/45/45 42/42/42 44/44/44
f 46/46/46 41/41/41 40/40/40
f 40/40/40 42/42/42 46/46/46
f 42/42/42 45/45/45 46/46/46
f 41/41/41 46/46/46 47/47/47
f 48/48/48 46/46/46 45/45/45
f 48/48/48 47/47/47 46/46/46
