g Trapezohedron_colision
v -0.0012991333 -0.00076135254 0.6366186
v 0.4460131 0.3362653 -0.070438705
v 0.5641985 -0.00070092775 0.06324966
v 0.16335241 0.53786284 0.06327774
v -0.0012991333 -0.00076135254 0.6366186
v 0.45870912 -0.3238324 -0.067955375
v 0.18994135 -0.529032 0.06327679
v 0.5641985 -0.00070092775 0.06324966
v -0.0012991333 -0.00076135254 0.6366186
v -0.56419796 -0.009974121 -0.06728503
v -0.46233913 0.3230149 0.06335037
v -0.4511477 -0.33986184 0.06331852
v -0.18439686 0.53167963 -0.06735799
v -0.0012991333 -0.00076135254 0.6366186
v -0.46233913 0.3230149 0.06335037
v 0.16335241 0.53786284 0.06327774
v -0.0012981262 -0.0008434296 -0.63670737
v -0.4511477 -0.33986184 0.06331852
v -0.16503324 -0.5378633 -0.06874524
v -0.56419796 -0.009974121 -0.06728503
v -0.16503324 -0.5378633 -0.06874524
v -0.0012991333 -0.00076135254 0.6366186
v 0.18994135 -0.529032 0.06327679
v -0.4511477 -0.33986184 0.06331852
v -0.0012981262 -0.0008434296 -0.63670737
v -0.46233913 0.3230149 0.06335037
v -0.56419796 -0.009974121 -0.06728503
v -0.18439686 0.53167963 -0.06735799
v -0.0012981262 -0.0008434296 -0.63670737
v 0.16335241 0.53786284 0.06327774
v -0.18439686 0.53167963 -0.06735799
v 0.4460131 0.3362653 -0.070438705
v 0.5641985 -0.00070092775 0.06324966
v -0.0012981262 -0.0008434296 -0.63670737
v 0.45870912 -0.3238324 -0.067955375
v 0.4460131 0.3362653 -0.070438705
v 0.18994135 -0.529032 0.06327679
v -0.0012981262 -0.0008434296 -0.63670737
v -0.16503324 -0.5378633 -0.06874524
v 0.45870912 -0.3238324 -0.067955375
vt 0.67928183 0.1625723
vt 0.6812729 0.0059607886
vt 0.62013733 0.037027296
vt 0.73997945 0.038120124
vt 0.42832217 0.16807869
vt 0.42823476 0.008446503
vt 0.3707004 0.039260846
vt 0.4862792 0.038918283
vt 0.8049445 0.16607934
vt 0.80553156 0.006450995
vt 0.7462802 0.0374916
vt 0.86463135 0.037952464
vt 0.55452067 0.0054784985
vt 0.5536569 0.16511984
vt 0.61338216 0.037030037
vt 0.49528605 0.036403734
vt 0.61593866 0.05809568
vt 0.61737686 0.21715936
vt 0.6760585 0.1849403
vt 0.557921 0.18633673
vt 0.9346896 0.00800487
vt 0.92961335 0.16763842
vt 0.99380606 0.04186206
vt 0.8745626 0.03743757
vt 0.7426881 0.058604654
vt 0.74158156 0.21767686
vt 0.80089176 0.18674853
vt 0.68279827 0.18597968
vt 0.36376387 0.061788738
vt 0.364206 0.21765351
vt 0.4231606 0.18619834
vt 0.30533883 0.18579115
vt 0.8657425 0.21794182
vt 0.8682936 0.061871454
vt 0.8085652 0.18587928
vt 0.9264299 0.1860133
vt 0.49391472 0.21706922
vt 0.49187154 0.05819077
vt 0.43339276 0.18578996
vt 0.55111235 0.18563572
vn 0.6288411 0.46800613 0.6209098
vn 0.6288337 0.468016 0.62090987
vn 0.629499 0.4671255 0.6209063
vn 0.6281645 0.46891028 0.6209127
vn 0.6378982 -0.4518227 0.62365234
vn 0.6378944 -0.45182803 0.6236523
vn 0.6434329 -0.44391963 0.6236421
vn 0.6323343 -0.45964158 0.62360483
vn -0.78083754 -0.013213267 0.62459445
vn -0.7808376 -0.013208712 0.6245944
vn -0.78093606 -0.006147664 0.6245808
vn -0.7807002 -0.02026873 0.624577
vn -0.2535592 0.738634 0.6246019
vn -0.25355718 0.7386347 0.6246019
vn -0.25930673 0.7366443 0.62459195
vn -0.2478017 0.74059653 0.6245888
vn -0.62225914 -0.46880063 -0.6269126
vn -0.6222687 -0.46878803 -0.62691265
vn -0.61783075 -0.47464308 -0.6268964
vn -0.6266501 -0.46293846 -0.6268953
vn -0.22146738 -0.7503869 0.62279356
vn -0.22137718 -0.7504138 0.6227931
vn -0.21287361 -0.7529227 0.62272966
vn -0.23002796 -0.74779546 0.6228074
vn -0.6378931 0.4471979 -0.62698203
vn -0.6378899 0.4472024 -0.62698203
vn -0.64140457 0.44216737 -0.6269674
vn -0.6343514 0.45222032 -0.6269729
vn 0.22788467 0.7449894 -0.6269446
vn 0.22785248 0.74499923 -0.6269445
vn 0.22223766 0.746702 -0.6269342
vn 0.23351888 0.7432524 -0.626933
vn 0.77780116 0.012330098 -0.6283895
vn 0.7777981 0.012634512 -0.6283872
vn 0.7778608 0.0012312217 -0.62843543
vn 0.7776445 0.02348738 -0.62826526
vn 0.2539139 -0.7374633 -0.62584
vn 0.2538472 -0.7374867 -0.6258394
vn 0.25112417 -0.7384395 -0.62581444
vn 0.25669992 -0.7364811 -0.6258599
g Trapezohedron_colision_0
f 3/3/3 2/2/2 1/1/1
f 4/4/4 1/1/1 2/2/2
f 7/7/7 6/6/6 5/5/5
f 8/8/8 5/5/5 6/6/6
f 11/11/11 10/10/10 9/9/9
f 12/12/12 9/9/9 10/10/10
f 15/15/15 14/14/14 13/13/13
f 16/16/16 13/13/13 14/14/14
f 19/19/19 18/18/18 17/17/17
f 20/20/20 17/17/17 18/18/18
f 23/23/23 22/22/22 21/21/21
f 24/24/24 21/21/21 22/22/22
f 27/27/27 26/26/26 25/25/25
f 28/28/28 25/25/25 26/26/26
f 31/31/31 30/30/30 29/29/29
f 32/32/32 29/29/29 30/30/30
f 35/35/35 34/34/34 33/33/33
f 36/36/36 33/33/33 34/34/34
f 39/39/39 38/38/38 37/37/37
f 40/40/40 37/37/37 38/38/38
