g Cube
v -0.20354117 -0.17916141 -0.20354134
v -0.20354117 -0.20354156 -0.17916118
v -0.2008323 -0.2008325 -0.20083244
v -0.21166795 -0.17916141 -0.17916116
v -0.20354117 0.17916101 -0.20354134
v -0.21166795 -0.17916141 0.17916127
v -0.20354117 -0.20354156 0.17916127
v -0.21166795 0.17916101 -0.17916116
v -0.2008323 0.2008323 -0.20083244
v -0.20354117 0.20354117 -0.17916116
v -0.20354117 0.20354117 0.17916127
v -0.21166795 0.17916101 0.17916127
v -0.2008323 0.2008323 0.20083256
v -0.20354117 0.17916101 0.20354141
v -0.20354117 -0.17916141 0.20354141
v -0.2008323 -0.2008325 0.20083256
v -0.17916101 -0.20354156 -0.20354134
v -0.20354117 -0.17916141 -0.20354134
v -0.2008323 -0.2008325 -0.20083244
v -0.17916101 -0.17916141 -0.21166806
v 0.17916131 -0.20354156 -0.20354134
v -0.17916101 0.17916101 -0.21166806
v -0.20354117 0.17916101 -0.20354134
v 0.1791615 -0.17916141 -0.21166806
v 0.2008326 -0.2008325 -0.20083244
v 0.20354167 -0.17916141 -0.20354134
v 0.20354167 0.17916101 -0.20354134
v 0.1791615 0.17916101 -0.21166806
v 0.2008326 0.2008323 -0.20083244
v 0.1791615 0.20354117 -0.20354134
v -0.17916101 0.20354117 -0.20354134
v -0.2008323 0.2008323 -0.20083244
v 0.20354167 -0.20354156 -0.17916116
v 0.20354167 -0.17916141 -0.20354134
v 0.2008326 -0.2008325 -0.20083244
v 0.21166825 -0.17916141 -0.17916116
v 0.20354167 -0.20354156 0.17916127
v 0.21166825 0.17916101 -0.17916116
v 0.20354167 0.17916101 -0.20354134
v 0.21166825 -0.17916141 0.17916127
v 0.2008326 -0.2008325 0.20083256
v 0.20354167 -0.17916141 0.20354141
v 0.20354167 0.17916101 0.20354141
v 0.20354167 0.20354117 -0.17916116
v 0.2008326 0.2008323 -0.20083244
v 0.21166825 0.17916101 0.17916127
v 0.20354167 0.20354117 0.17916127
v 0.2008326 0.2008323 0.20083256
v 0.17916131 -0.20354156 -0.20354134
v 0.20354167 -0.20354156 -0.17916116
v 0.2008326 -0.2008325 -0.20083244
v 0.1791615 -0.21166836 -0.17916116
v -0.17916101 -0.20354156 -0.20354134
v 0.1791615 -0.21166836 0.17916127
v 0.20354167 -0.20354156 0.17916127
v -0.17916101 -0.21166836 -0.17916116
v -0.2008323 -0.2008325 -0.20083244
v -0.20354117 -0.20354156 -0.17916118
v -0.20354117 -0.20354156 0.17916127
v -0.17916101 -0.21166836 0.17916127
v -0.2008323 -0.2008325 0.20083256
v -0.17916101 -0.20354156 0.20354141
v 0.1791615 -0.20354156 0.20354141
v 0.2008326 -0.2008325 0.20083256
v -0.17916101 0.20354117 -0.20354134
v -0.20354117 0.20354117 -0.17916116
v -0.2008323 0.2008323 -0.20083244
v -0.17916101 0.21166795 -0.17916116
v 0.1791615 0.20354117 -0.20354134
v -0.17916101 0.21166795 0.17916127
v -0.20354117 0.20354117 0.17916127
v -0.17916101 0.20354117 0.20354141
v -0.2008323 0.2008323 0.20083256
v 0.1791615 0.21166795 0.17916127
v 0.17916131 0.20354117 0.20354141
v 0.2008326 0.2008323 0.20083256
v 0.20354167 0.20354117 0.17916127
v 0.1791615 0.21166795 -0.17916116
v 0.20354167 0.20354117 -0.17916116
v 0.2008326 0.2008323 -0.20083244
v -0.20354117 -0.17916141 0.20354141
v -0.17916101 -0.20354156 0.20354141
v -0.2008323 -0.2008325 0.20083256
v -0.17916101 -0.17916141 0.2116681
v -0.20354117 0.17916101 0.20354141
v 0.1791615 -0.17916141 0.2116681
v 0.1791615 -0.20354156 0.20354141
v 0.20354167 -0.17916141 0.20354141
v 0.2008326 -0.2008325 0.20083256
v 0.1791615 0.17916101 0.2116681
v 0.20354167 0.17916101 0.20354141
v -0.17916101 0.17916101 0.2116681
v 0.17916131 0.20354117 0.20354141
v 0.2008326 0.2008323 0.20083256
v -0.17916101 0.20354117 0.20354141
v -0.2008323 0.2008323 0.20083256
vt 0.28393844 0.15187821
vt 0.2924702 0.16040985
vt 0.2915329 0.15281537
vt 0.28374174 0.16060667
vt 0.16082022 0.15187824
vt 0.28374174 0.28333142
vt 0.2924702 0.28352812
vt 0.16101694 0.16060667
vt 0.15322572 0.1528154
vt 0.1522885 0.16040988
vt 0.15228856 0.28352818
vt 0.16101694 0.28333142
vt 0.15322572 0.29112265
vt 0.16082022 0.29205987
vt 0.2839385 0.29205987
vt 0.29153302 0.29112265
vt 0.015209189 0.43782565
vt 0.0066774986 0.42929396
vt 0.007614722 0.4368885
vt 0.015405944 0.42909715
vt 0.13832746 0.43782565
vt 0.015405944 0.30637237
vt 0.0066774986 0.30617568
vt 0.13813071 0.42909715
vt 0.14592199 0.4368885
vt 0.14685915 0.42929396
vt 0.14685915 0.30617568
vt 0.13813071 0.3063724
vt 0.14592199 0.29858115
vt 0.13832746 0.2976439
vt 0.015209189 0.2976439
vt 0.007614722 0.29858115
vt 0.15228856 0.01336056
vt 0.16082022 0.0048288926
vt 0.15322572 0.0057660416
vt 0.16101694 0.013557337
vt 0.1522885 0.136479
vt 0.28374192 0.013557337
vt 0.28393868 0.0048288666
vt 0.16101694 0.13628227
vt 0.15322566 0.14407349
vt 0.16082016 0.14501072
vt 0.28393874 0.14501072
vt 0.29247037 0.01336056
vt 0.29153314 0.005766079
vt 0.28374198 0.13628227
vt 0.29247043 0.13647905
vt 0.2915332 0.14407353
vt 0.28405696 0.2978922
vt 0.2925887 0.30642387
vt 0.2916515 0.2988294
vt 0.28386027 0.30662063
vt 0.16093872 0.29789218
vt 0.28386027 0.42934534
vt 0.2925887 0.42954212
vt 0.16113548 0.30662063
vt 0.1533442 0.29882938
vt 0.15240698 0.30642387
vt 0.15240698 0.42954212
vt 0.16113548 0.42934534
vt 0.1533442 0.43713662
vt 0.16093872 0.4380738
vt 0.28405696 0.4380738
vt 0.2916515 0.43713662
vt 0.1368891 0.1518786
vt 0.14542076 0.16041031
vt 0.1444836 0.15281579
vt 0.13669232 0.16060708
vt 0.013770632 0.15187854
vt 0.13669226 0.28333202
vt 0.14542076 0.28352883
vt 0.13688904 0.29206046
vt 0.14448354 0.29112336
vt 0.013967276 0.28333196
vt 0.013770536 0.2920604
vt 0.006176032 0.29112324
vt 0.0052388683 0.28352872
vt 0.013967425 0.16060701
vt 0.005238965 0.16041023
vt 0.006176129 0.15281571
vt 0.0052388683 0.013360582
vt 0.013770632 0.0048288777
vt 0.0061760806 0.005766064
vt 0.0139673725 0.013557348
vt 0.0052388683 0.13647932
vt 0.13669258 0.013557337
vt 0.13688934 0.0048288666
vt 0.14542106 0.013360608
vt 0.14448383 0.00576609
vt 0.13669258 0.13628256
vt 0.14542106 0.13647935
vt 0.0139673725 0.13628256
vt 0.13688934 0.14501107
vt 0.1444838 0.14407386
vt 0.013770536 0.14501107
vt 0.0061760806 0.14407386
vn -0.9541547 -0.11365307 -0.27689707
vn -0.95415455 -0.2768974 -0.11365302
vn -0.9801964 -0.14002685 -0.14002685
vn -0.9753872 -0.15591641 -0.15591642
vn -0.94591457 0.07633394 -0.3153073
vn -0.9753872 -0.15591651 0.15591644
vn -0.95415455 -0.27689737 0.11365298
vn -0.98040694 0.139288 -0.13928786
vn -0.942809 0.23570247 -0.2357023
vn -0.94591457 0.31530744 -0.07633384
vn -0.94591457 0.31530747 0.07633375
vn -0.98040694 0.13928786 0.13928793
vn -0.9428091 0.23570228 0.23570228
vn -0.94591457 0.07633376 0.3153074
vn -0.9541547 -0.11365302 0.276897
vn -0.98019654 -0.14002661 0.14002661
vn -0.1136528 -0.27689603 -0.95415485
vn -0.2768957 -0.11365283 -0.95415497
vn -0.14002846 -0.14002846 -0.98019594
vn -0.15591541 -0.15591538 -0.9753876
vn 0.076335266 -0.3153058 -0.94591504
vn -0.15591545 0.1559154 -0.9753876
vn -0.27689537 0.11365261 -0.9541552
vn 0.13928775 -0.1392878 -0.98040694
vn 0.23570313 -0.2357043 -0.94280833
vn 0.3153052 -0.07633627 -0.9459151
vn 0.3153052 0.076335564 -0.9459151
vn 0.13928747 0.13928746 -0.98040706
vn 0.23570232 0.23570314 -0.94280875
vn 0.076335125 0.3153053 -0.9459152
vn -0.113652594 0.27689537 -0.9541552
vn -0.14002705 0.14002705 -0.9801964
vn 0.9541554 -0.276894 -0.113653265
vn 0.9541556 -0.113653325 -0.27689365
vn 0.9801937 -0.14003672 -0.14003664
vn 0.9753882 -0.15591311 -0.15591303
vn 0.94591653 -0.31530038 0.076338775
vn 0.9753882 0.15591305 -0.15591305
vn 0.95415574 0.11365306 -0.27689326
vn 0.9804074 -0.13928628 0.13928631
vn 0.94280857 -0.23570278 0.2357036
vn 0.94591653 -0.07633831 0.31530038
vn 0.95415574 0.11365299 0.2768933
vn 0.95415574 0.2768934 -0.11365302
vn 0.980194 0.1400353 -0.14003523
vn 0.9753882 0.1559131 0.15591305
vn 0.95415574 0.2768933 0.11365306
vn 0.980194 0.14003502 0.14003502
vn 0.11365435 -0.95415366 -0.27689976
vn 0.27689895 -0.9541538 -0.1136555
vn 0.14003542 -0.98019373 -0.1400365
vn 0.15591677 -0.975387 -0.1559169
vn -0.07633815 -0.94591427 -0.31530717
vn 0.15591651 -0.9753872 0.15591644
vn 0.27689937 -0.95415366 0.113655135
vn -0.13928893 -0.98040664 -0.1392888
vn -0.23570627 -0.9428071 -0.23570609
vn -0.3153073 -0.94591427 -0.07633809
vn -0.3153073 -0.94591427 0.076337926
vn -0.13928886 -0.9804067 0.13928886
vn -0.23570612 -0.9428072 0.23570612
vn -0.07633796 -0.94591427 0.31530732
vn 0.11365519 -0.9541538 0.27689904
vn 0.14003645 -0.9801937 0.14003645
vn -0.11365277 0.95415473 -0.27689663
vn -0.27689677 0.95415473 -0.11365272
vn -0.14002544 0.98019683 -0.14002538
vn -0.15591644 0.9753872 -0.1559164
vn 0.11365305 0.9541547 -0.27689698
vn -0.15591651 0.9753872 0.15591644
vn -0.27689666 0.95415473 0.11365277
vn -0.11365274 0.95415473 0.27689666
vn -0.1400252 0.98019683 0.1400252
vn 0.13928817 0.9804068 0.13928825
vn 0.076333426 0.9459145 0.31530803
vn 0.23570223 0.94280857 0.2357042
vn 0.3153074 0.9459145 0.07633488
vn 0.15591651 0.9753872 -0.15591636
vn 0.27689746 0.95415455 -0.11365299
vn 0.14002684 0.9801964 -0.14002676
vn -0.27689427 -0.11365211 0.9541555
vn -0.11365202 -0.27689463 0.9541554
vn -0.14002661 -0.14002661 0.98019654
vn -0.15591481 -0.15591474 0.9753877
vn -0.27689394 0.11365175 0.9541556
vn 0.15591478 -0.15591481 0.9753877
vn 0.11365233 -0.27689493 0.9541553
vn 0.27689502 -0.1136523 0.9541553
vn 0.14002801 -0.14002801 0.98019606
vn 0.15591514 0.15591526 0.9753876
vn 0.27689412 0.11365246 0.9541555
vn -0.15591481 0.15591478 0.9753877
vn 0.113651246 0.27689508 0.9541554
vn 0.14002533 0.14002645 0.9801967
vn -0.11365181 0.2768939 0.9541556
vn -0.1400252 0.1400252 0.98019683
g Cube_0
f 3/3/3 2/2/2 1/1/1
f 4/4/4 1/1/1 2/2/2
f 1/1/1 4/4/4 5/5/5
f 4/4/4 2/2/2 6/6/6
f 7/7/7 6/6/6 2/2/2
f 8/8/8 5/5/5 4/4/4
f 5/5/5 8/8/8 9/9/9
f 10/10/10 9/9/9 8/8/8
f 10/10/10 8/8/8 11/11/11
f 8/8/8 4/4/4 12/12/12
f 12/12/12 11/11/11 8/8/8
f 6/6/6 12/12/12 4/4/4
f 11/11/11 12/12/12 13/13/13
f 14/14/14 13/13/13 12/12/12
f 14/14/14 12/12/12 15/15/15
f 6/6/6 15/15/15 12/12/12
f 6/6/6 7/7/7 15/15/15
f 16/16/16 15/15/15 7/7/7
f 19/19/19 18/18/18 17/17/17
f 20/20/20 17/17/17 18/18/18
f 17/17/17 20/20/20 21/21/21
f 20/20/20 18/18/18 22/22/22
f 23/23/23 22/22/22 18/18/18
f 24/24/24 21/21/21 20/20/20
f 20/20/20 22/22/22 24/24/24
f 21/21/21 24/24/24 25/25/25
f 26/26/26 25/25/25 24/24/24
f 26/26/26 24/24/24 27/27/27
f 28/28/28 27/27/27 24/24/24
f 28/28/28 24/24/24 22/22/22
f 27/27/27 28/28/28 29/29/29
f 30/30/30 29/29/29 28/28/28
f 30/30/30 28/28/28 31/31/31
f 22/22/22 31/31/31 28/28/28
f 22/22/22 23/23/23 31/31/31
f 32/32/32 31/31/31 23/23/23
f 35/35/35 34/34/34 33/33/33
f 36/36/36 33/33/33 34/34/34
f 33/33/33 36/36/36 37/37/37
f 36/36/36 34/34/34 38/38/38
f 39/39/39 38/38/38 34/34/34
f 40/40/40 37/37/37 36/36/36
f 36/36/36 38/38/38 40/40/40
f 37/37/37 40/40/40 41/41/41
f 42/42/42 41/41/41 40/40/40
f 42/42/42 40/40/40 43/43/43
f 38/38/38 39/39/39 44/44/44
f 45/45/45 44/44/44 39/39/39
f 46/46/46 40/40/40 38/38/38
f 38/38/38 44/44/44 46/46/46
f 46/46/46 43/43/43 40/40/40
f 47/47/47 46/46/46 44/44/44
f 46/46/46 47/47/47 43/43/43
f 48/48/48 43/43/43 47/47/47
f 51/51/51 50/50/50 49/49/49
f 52/52/52 49/49/49 50/50/50
f 49/49/49 52/52/52 53/53/53
f 52/52/52 50/50/50 54/54/54
f 55/55/55 54/54/54 50/50/50
f 56/56/56 53/53/53 52/52/52
f 52/52/52 54/54/54 56/56/56
f 53/53/53 56/56/56 57/57/57
f 58/58/58 57/57/57 56/56/56
f 58/58/58 56/56/56 59/59/59
f 60/60/60 59/59/59 56/56/56
f 60/60/60 56/56/56 54/54/54
f 59/59/59 60/60/60 61/61/61
f 62/62/62 61/61/61 60/60/60
f 62/62/62 60/60/60 63/63/63
f 54/54/54 63/63/63 60/60/60
f 54/54/54 55/55/55 63/63/63
f 64/64/64 63/63/63 55/55/55
f 67/67/67 66/66/66 65/65/65
f 68/68/68 65/65/65 66/66/66
f 65/65/65 68/68/68 69/69/69
f 68/68/68 66/66/66 70/70/70
f 71/71/71 70/70/70 66/66/66
f 70/70/70 71/71/71 72/72/72
f 73/73/73 72/72/72 71/71/71
f 70/70/70 72/72/72 74/74/74
f 70/70/70 74/74/74 68/68/68
f 75/75/75 74/74/74 72/72/72
f 75/75/75 76/76/76 74/74/74
f 77/77/77 74/74/74 76/76/76
f 78/78/78 68/68/68 74/74/74
f 74/74/74 77/77/77 78/78/78
f 78/78/78 69/69/69 68/68/68
f 79/79/79 78/78/78 77/77/77
f 78/78/78 79/79/79 69/69/69
f 80/80/80 69/69/69 79/79/79
f 83/83/83 82/82/82 81/81/81
f 84/84/84 81/81/81 82/82/82
f 81/81/81 84/84/84 85/85/85
f 84/84/84 82/82/82 86/86/86
f 87/87/87 86/86/86 82/82/82
f 86/86/86 87/87/87 88/88/88
f 89/89/89 88/88/88 87/87/87
f 86/86/86 88/88/88 90/90/90
f 86/86/86 90/90/90 84/84/84
f 91/91/91 90/90/90 88/88/88
f 92/92/92 85/85/85 84/84/84
f 92/92/92 84/84/84 90/90/90
f 90/90/90 91/91/91 93/93/93
f 90/90/90 93/93/93 92/92/92
f 94/94/94 93/93/93 91/91/91
f 95/95/95 92/92/92 93/93/93
f 92/92/92 95/95/95 85/85/85
f 96/96/96 85/85/85 95/95/95
