g Dodecahedron
v 0.11478145 0.15798299 -0.2556219
v 1.7547607E-07 -0.19527777 -0.2556219
v 0.1857201 -0.06034403 -0.2556219
v -0.11478127 0.15798299 -0.2556219
v -0.18571992 -0.06034403 -0.2556219
v 2.632141E-07 0.19527785 0.25562197
v 0.3005013 0.09763884 0.060344137
v 0.18572028 0.060344204 0.25562197
v 1.7547607E-07 0.31596565 0.060344137
v 0.18571992 0.25562182 -0.060344137
v 0.11478145 0.15798299 -0.2556219
v 0.3005013 0.09763884 0.060344137
v 0.18571992 0.25562182 -0.060344137
v 0.1857201 -0.06034403 -0.2556219
v 0.30050147 -0.09763866 -0.060344137
v -0.18571985 0.25562182 -0.060344137
v 0.18571992 0.25562182 -0.060344137
v 1.7547607E-07 0.31596565 0.060344137
v 0.11478145 0.15798299 -0.2556219
v -0.11478127 0.15798299 -0.2556219
v 0.30050147 -0.09763866 -0.060344137
v 0.18572028 0.060344204 0.25562197
v 0.3005013 0.09763884 0.060344137
v 0.11478162 -0.15798287 0.25562197
v 0.18571992 -0.25562152 0.060344137
v 0.30050147 -0.09763866 -0.060344137
v 1.7547607E-07 -0.31596574 -0.060344137
v 0.18571992 -0.25562152 0.060344137
v 0.1857201 -0.06034403 -0.2556219
v 1.7547607E-07 -0.19527777 -0.2556219
v 0.18571992 -0.25562152 0.060344137
v -0.11478101 -0.15798287 0.25562197
v 0.11478162 -0.15798287 0.25562197
v -0.18571985 -0.25562152 0.060344137
v 1.7547607E-07 -0.31596574 -0.060344137
v 1.7547607E-07 -0.31596574 -0.060344137
v -0.3005012 -0.09763884 -0.060344137
v -0.18571985 -0.25562152 0.060344137
v 1.7547607E-07 -0.19527777 -0.2556219
v -0.18571992 -0.06034403 -0.2556219
v 0.11478162 -0.15798287 0.25562197
v 2.632141E-07 0.19527785 0.25562197
v 0.18572028 0.060344204 0.25562197
v -0.11478101 -0.15798287 0.25562197
v -0.18571985 0.060344204 0.25562197
v -0.18571985 0.060344204 0.25562197
v -0.3005012 -0.09763884 -0.060344137
v -0.3005011 0.09763884 0.060344137
v -0.11478101 -0.15798287 0.25562197
v -0.18571985 -0.25562152 0.060344137
v -0.3005011 0.09763884 0.060344137
v -0.11478127 0.15798299 -0.2556219
v -0.18571985 0.25562182 -0.060344137
v -0.18571992 -0.06034403 -0.2556219
v -0.3005012 -0.09763884 -0.060344137
v -0.18571985 0.060344204 0.25562197
v 1.7547607E-07 0.31596565 0.060344137
v 2.632141E-07 0.19527785 0.25562197
v -0.3005011 0.09763884 0.060344137
v -0.18571985 0.25562182 -0.060344137
vt 0.5422625 0.6700684
vt 0.57924235 0.5562562
vt 0.5194077 0.5997287
vt 0.61622214 0.6700684
vt 0.63907695 0.5997287
vt 0.68166053 0.4738118
vt 0.6437811 0.5873277
vt 0.7039579 0.54433036
vt 0.60770327 0.4732265
vt 0.5842924 0.54338306
vt 0.16588609 0.47112805
vt 0.12890635 0.58494025
vt 0.18874101 0.5414678
vt 0.09192656 0.47112805
vt 0.069071695 0.5414679
vt 0.007992197 0.59483147
vt 0.12766115 0.5948314
vt 0.06782673 0.551359
vt 0.10480653 0.6651712
vt 0.030846821 0.6651712
vt 0.7351133 0.475259
vt 0.8307276 0.54722166
vt 0.80906224 0.4765064
vt 0.77016824 0.58967876
vt 0.7110753 0.5452033
vt 0.39311182 0.5986087
vt 0.51278085 0.5986087
vt 0.45294642 0.55513614
vt 0.41596663 0.6689484
vt 0.48992622 0.6689484
vt 0.19907902 0.53868425
vt 0.2958935 0.4683445
vt 0.22193377 0.4683445
vt 0.3187483 0.53868425
vt 0.25891364 0.5821568
vt 0.5778203 0.54301137
vt 0.45815104 0.54301995
vt 0.51798886 0.5864881
vt 0.55496037 0.47267318
vt 0.48100072 0.47267854
vt 0.2851901 0.664468
vt 0.32216996 0.5506558
vt 0.2623353 0.59412825
vt 0.3591498 0.664468
vt 0.38200462 0.5941282
vt 0.15827404 0.66247314
vt 0.19513117 0.54862106
vt 0.13534348 0.592158
vt 0.23223369 0.6623934
vt 0.2550125 0.592029
vt 0.38864708 0.5850047
vt 0.35154474 0.4712324
vt 0.3287655 0.5415968
vt 0.4255044 0.47115278
vt 0.44843477 0.54146796
vt 0.7430185 0.6706013
vt 0.6462043 0.60026157
vt 0.66905886 0.6706013
vt 0.76587313 0.60026157
vt 0.7060387 0.556789
vn 0.3568225 0.4911236 -0.7946542
vn 4.244532E-07 -0.60706264 -0.79465395
vn 0.5773505 -0.18759242 -0.79465425
vn -0.3568225 0.49112353 -0.79465425
vn -0.5773504 -0.18759222 -0.7946544
vn -0 0.60706294 0.7946537
vn 0.9341723 0.3035315 0.18759203
vn 0.5773507 0.1875927 0.794654
vn -0 0.9822468 0.18759282
vn 0.57734996 0.7946548 -0.18759193
vn 0.3568225 0.4911236 -0.7946542
vn 0.9341723 0.3035315 0.18759203
vn 0.57734996 0.7946548 -0.18759193
vn 0.5773505 -0.18759242 -0.79465425
vn 0.93417245 -0.30353057 -0.18759264
vn -0.5773502 0.7946548 -0.18759172
vn 0.57734996 0.7946548 -0.18759193
vn -0 0.9822468 0.18759282
vn 0.3568225 0.4911236 -0.7946542
vn -0.3568225 0.49112353 -0.79465425
vn 0.93417245 -0.30353057 -0.18759264
vn 0.5773507 0.1875927 0.794654
vn 0.9341723 0.3035315 0.18759203
vn 0.3568225 -0.4911239 0.79465395
vn 0.5773496 -0.794655 0.18759231
vn 0.93417245 -0.30353057 -0.18759264
vn 2.3875464E-07 -0.98224705 -0.1875917
vn 0.5773496 -0.794655 0.18759231
vn 0.5773505 -0.18759242 -0.79465425
vn 4.244532E-07 -0.60706264 -0.79465395
vn 0.5773496 -0.794655 0.18759231
vn -0.35682195 -0.49112403 0.7946542
vn 0.3568225 -0.4911239 0.79465395
vn -0.57735014 -0.7946545 0.18759276
vn 2.3875464E-07 -0.98224705 -0.1875917
vn 2.3875464E-07 -0.98224705 -0.1875917
vn -0.93417233 -0.3035311 -0.18759222
vn -0.57735014 -0.7946545 0.18759276
vn 4.244532E-07 -0.60706264 -0.79465395
vn -0.5773504 -0.18759222 -0.7946544
vn 0.3568225 -0.4911239 0.79465395
vn -0 0.60706294 0.7946537
vn 0.5773507 0.1875927 0.794654
vn -0.35682195 -0.49112403 0.7946542
vn -0.57735044 0.18759273 0.79465425
vn -0.57735044 0.18759273 0.79465425
vn -0.93417233 -0.3035311 -0.18759222
vn -0.9341723 0.3035312 0.1875926
vn -0.35682195 -0.49112403 0.7946542
vn -0.57735014 -0.7946545 0.18759276
vn -0.9341723 0.3035312 0.1875926
vn -0.3568225 0.49112353 -0.79465425
vn -0.5773502 0.7946548 -0.18759172
vn -0.5773504 -0.18759222 -0.7946544
vn -0.93417233 -0.3035311 -0.18759222
vn -0.57735044 0.18759273 0.79465425
vn -0 0.9822468 0.18759282
vn -0 0.60706294 0.7946537
vn -0.9341723 0.3035312 0.1875926
vn -0.5773502 0.7946548 -0.18759172
g Dodecahedron_0
f 3/3/3 2/2/2 1/1/1
f 1/1/1 2/2/2 4/4/4
f 2/2/2 5/5/5 4/4/4
f 8/8/8 7/7/7 6/6/6
f 6/6/6 7/7/7 9/9/9
f 7/7/7 10/10/10 9/9/9
f 13/13/13 12/12/12 11/11/11
f 11/11/11 12/12/12 14/14/14
f 12/12/12 15/15/15 14/14/14
f 18/18/18 17/17/17 16/16/16
f 17/17/17 19/19/19 16/16/16
f 19/19/19 20/20/20 16/16/16
f 23/23/23 22/22/22 21/21/21
f 22/22/22 24/24/24 21/21/21
f 24/24/24 25/25/25 21/21/21
f 28/28/28 27/27/27 26/26/26
f 26/26/26 27/27/27 29/29/29
f 27/27/27 30/30/30 29/29/29
f 33/33/33 32/32/32 31/31/31
f 32/32/32 34/34/34 31/31/31
f 34/34/34 35/35/35 31/31/31
f 38/38/38 37/37/37 36/36/36
f 36/36/36 37/37/37 39/39/39
f 37/37/37 40/40/40 39/39/39
f 43/43/43 42/42/42 41/41/41
f 41/41/41 42/42/42 44/44/44
f 42/42/42 45/45/45 44/44/44
f 48/48/48 47/47/47 46/46/46
f 46/46/46 47/47/47 49/49/49
f 47/47/47 50/50/50 49/49/49
f 53/53/53 52/52/52 51/51/51
f 52/52/52 54/54/54 51/51/51
f 54/54/54 55/55/55 51/51/51
f 58/58/58 57/57/57 56/56/56
f 56/56/56 57/57/57 59/59/59
f 57/57/57 60/60/60 59/59/59
