g Octahedron_colision
v 2.5177002E-07 2.5177002E-07 0.39093548
v 0.2610786 -0.2610782 3.1471252E-08
v -0.26107872 -0.2610782 3.1471252E-08
v 2.5177002E-07 2.5177002E-07 0.39093548
v 0.2610791 0.26107872 0
v 0.2610786 -0.2610782 3.1471252E-08
v 2.5177002E-07 2.5177002E-07 0.39093548
v -0.26107833 0.26107872 0
v 0.2610791 0.26107872 0
v 2.5177002E-07 2.5177002E-07 0.39093548
v -0.26107872 -0.2610782 3.1471252E-08
v -0.26107833 0.26107872 0
v 2.5177002E-07 2.5177002E-07 -0.39093545
v -0.26107872 -0.2610782 3.1471252E-08
v 0.2610786 -0.2610782 3.1471252E-08
v 2.5177002E-07 2.5177002E-07 -0.39093545
v 0.2610786 -0.2610782 3.1471252E-08
v 0.2610791 0.26107872 0
v 2.5177002E-07 2.5177002E-07 -0.39093545
v 0.2610791 0.26107872 0
v -0.26107833 0.26107872 0
v 2.5177002E-07 2.5177002E-07 -0.39093545
v -0.26107833 0.26107872 0
v -0.26107872 -0.2610782 3.1471252E-08
vt 0.526717 0.4156622
vt 0.59148467 0.29844493
vt 0.4619494 0.29844487
vt 0.37452424 0.41439685
vt 0.43929183 0.29717958
vt 0.3097567 0.29717958
vt 0.83384925 0.41458935
vt 0.8986169 0.2973721
vt 0.7690818 0.29737204
vt 0.67891043 0.41566557
vt 0.743678 0.2984482
vt 0.6141428 0.2984482
vt 0.7562958 0.32650778
vt 0.69392526 0.43940744
vt 0.82106334 0.4407517
vt 0.9110524 0.32353863
vt 0.84628487 0.44075596
vt 0.97581995 0.44075596
vt 0.60282123 0.32861626
vt 0.53805363 0.4458336
vt 0.66758883 0.44583356
vt 0.45186818 0.33495203
vt 0.3871005 0.4521693
vt 0.5166358 0.4521693
vn -0 -0.83160347 0.5553698
vn -0 -0.83160347 0.5553698
vn -0 -0.83160347 0.5553698
vn 0.8316034 -7.7849506E-07 0.55537
vn 0.8316034 -7.7849506E-07 0.55537
vn 0.8316034 -7.7849506E-07 0.55537
vn -0 0.8316036 0.5553698
vn -0 0.8316036 0.5553698
vn -0 0.8316036 0.5553698
vn -0.8316032 6.4310456E-07 0.5553703
vn -0.8316032 6.431045E-07 0.5553703
vn -0.8316032 6.431045E-07 0.5553702
vn -0 -0.8316036 -0.5553698
vn -0 -0.8316036 -0.5553698
vn -0 -0.8316036 -0.5553698
vn 0.8316034 -8.4619046E-07 -0.55537
vn 0.8316034 -8.4619035E-07 -0.55537
vn 0.8316034 -8.4619035E-07 -0.55537
vn -0 0.8316036 -0.5553698
vn -0 0.8316036 -0.5553698
vn -0 0.83160347 -0.5553698
vn -0.8316032 5.7540933E-07 -0.5553703
vn -0.8316032 5.754093E-07 -0.5553702
vn -0.8316032 5.7540933E-07 -0.5553703
g Octahedron_colision_0
f 3/3/3 2/2/2 1/1/1
f 6/6/6 5/5/5 4/4/4
f 9/9/9 8/8/8 7/7/7
f 12/12/12 11/11/11 10/10/10
f 15/15/15 14/14/14 13/13/13
f 18/18/18 17/17/17 16/16/16
f 21/21/21 20/20/20 19/19/19
f 24/24/24 23/23/23 22/22/22
