g square_tile
v -1 0.19999984 0.999999
v -1 3.3776624E-07 -1
v -0.999999 0.20000036 -1
v -1 -1.6292068E-07 1
v -0.999999 0.20000036 -1
v 1 1.6292043E-07 -0.999999
v 1 0.20000017 -0.999999
v -1 3.3776624E-07 -1
v 1 0.20000017 -0.999999
v 0.999999 -3.3776615E-07 1
v 1 0.19999968 1
v 1 1.6292043E-07 -0.999999
v -1 -1.6292068E-07 1
v 1 0.19999968 1
v 0.999999 -3.3776615E-07 1
v -1 0.19999984 0.999999
v 1 0.19999968 1
v -0.999999 0.20000036 -1
v 1 0.20000017 -0.999999
v -1 0.19999984 0.999999
v -1 3.3776624E-07 -1
v 0.999999 -3.3776615E-07 1
v 1 1.6292043E-07 -0.999999
v -1 -1.6292068E-07 1
vt 0.987662 0.10987
vt 0.012337 0.012337
vt 0.012337 0.10987
vt 0.987662 0.012337
vt 0.987663 0.354284
vt 0.012337 0.256751
vt 0.012337 0.354284
vt 0.987663 0.256751
vt 0.012337 0.378958
vt 0.987661 0.476491
vt 0.987661 0.378958
vt 0.012337 0.47649
vt 0.987662 0.232077
vt 0.012337 0.134544
vt 0.012337 0.232077
vt 0.987662 0.134544
vt 1 2.9802322E-08
vt 5.662441E-07 1
vt 1 0.9999994
vt 2.9802322E-08 5.662441E-07
vt 1 1
vt 5.662441E-07 2.9802322E-08
vt 2.9802322E-08 0.9999994
vt 1 2.9802322E-08
vn -1 0 0
vn -1 4.9123946E-06 0
vn -1 5.2452083E-06 0
vn -1 0 0
vn -0 0 -1
vn -0 0 -1
vn -0 0 -1
vn -0 0 -1
vn 1 0 0
vn 1 -4.9123933E-06 0
vn 1 -5.2452087E-06 0
vn 1 0 0
vn -0 4.912395E-06 1
vn -0 0 1
vn -0 0 1
vn -0 5.2452087E-06 1
vn -0 1 0
vn -0 1 0
vn -0 1 0
vn -0 1 0
vn -0 -1 0
vn -0 -1 0
vn -0 -1 0
vn -0 -1 0
g square_tile_0
f 3/3/3 2/2/2 1/1/1
f 1/1/1 2/2/2 4/4/4
f 7/7/7 6/6/6 5/5/5
f 5/5/5 6/6/6 8/8/8
f 11/11/11 10/10/10 9/9/9
f 9/9/9 10/10/10 12/12/12
f 15/15/15 14/14/14 13/13/13
f 13/13/13 14/14/14 16/16/16
g square_tile_1
f 19/19/19 18/18/18 17/17/17
f 17/17/17 18/18/18 20/20/20
g square_tile_2
f 23/23/23 22/22/22 21/21/21
f 21/21/21 22/22/22 24/24/24
