g Tetrahedron_colision
v -3.7216076E-05 2.9198496E-05 0.6621027
v 0.5166456 -0.29886726 -0.22383806
v -0.516586 -0.29886726 -0.223838
v -3.7216076E-05 2.9198496E-05 0.6621027
v -3.6564456E-05 0.5974819 -0.2238381
v 0.5166456 -0.29886726 -0.22383806
v -3.7216076E-05 2.9198496E-05 0.6621027
v -0.516586 -0.29886726 -0.223838
v -3.6564456E-05 0.5974819 -0.2238381
v -0.516586 -0.29886726 -0.223838
v 0.5166456 -0.29886726 -0.22383806
v -3.6564456E-05 0.5974819 -0.2238381
vt 0.86288863 0.8254358
vt 0.78806394 0.9612168
vt 0.93767935 0.9612177
vt 0.90718174 0.6037234
vt 0.9834182 0.46900856
vt 0.833331 0.4676656
vt 0.9082275 0.847273
vt 0.9819305 0.7111465
vt 0.8318471 0.71263564
vt 0.77445376 0.68976116
vt 0.92422223 0.6898269
vt 0.84937406 0.5599312
vn -0 -0.9475274 0.31967443
vn -0 -0.9475274 0.31967443
vn -0 -0.9475274 0.31967443
vn 0.82105774 0.47328204 0.3191682
vn 0.82105774 0.47328204 0.3191682
vn 0.82105774 0.47328204 0.3191682
vn -0.82112676 0.47320026 0.3191119
vn -0.82112676 0.47320026 0.3191119
vn -0.82112676 0.47320026 0.3191119
vn -0 0 -1
vn -0 0 -1
vn -0 0 -1
g Tetrahedron_colision_0
f 3/3/3 2/2/2 1/1/1
f 6/6/6 5/5/5 4/4/4
f 9/9/9 8/8/8 7/7/7
f 12/12/12 11/11/11 10/10/10
