g Trapezohedron
v 0.0143403625 -0.044577025 0.5430653
v -0.03849495 -0.028702697 0.5431009
v -0.0012469483 -0.00065025326 0.5724472
v -0.15003021 -0.48896667 -0.062495667
v 0.17267394 -0.48093817 0.057524357
v -0.41013426 -0.3089653 0.05756229
v 0.045408554 -0.0003476715 0.54310685
v 0.40546644 0.3056957 -0.064035185
v 0.5129077 -0.000637207 0.05749969
v 0.1485022 0.4889662 0.057525214
v 0.012358932 0.043948516 0.54307926
v -0.0012469483 -0.00065025326 0.5724472
v 0.0143403625 -0.044577025 0.5430653
v 0.41700828 -0.29439306 -0.06177761
v 0.17267394 -0.48093817 0.057524357
v 0.5129077 -0.000637207 0.05749969
v 0.045408554 -0.0003476715 0.54310685
v -0.0012469483 -0.00065025326 0.5724472
v -0.039450303 0.026173782 0.54311806
v -0.51290727 -0.009067383 -0.061168212
v -0.4203083 0.29364988 0.057591245
v -0.41013426 -0.3089653 0.05756229
v -0.03849495 -0.028702697 0.5431009
v -0.0012469483 -0.00065025326 0.5724472
v 0.012358932 0.043948516 0.54307926
v -0.1676335 0.4833451 -0.06123453
v 0.1485022 0.4889662 0.057525214
v -0.4203083 0.29364988 0.057591245
v -0.039450303 0.026173782 0.54311806
v -0.0012469483 -0.00065025326 0.5724472
v -0.04809082 -0.0014989472 -0.54318607
v -0.014761963 -0.045451812 -0.5431769
v -0.0012130737 -0.0007525635 -0.57244706
v -0.41013426 -0.3089653 0.05756229
v -0.51290727 -0.009067383 -0.061168212
v -0.15003021 -0.48896667 -0.062495667
v -0.04809082 -0.0014989472 -0.54318607
v -0.4203083 0.29364988 0.057591245
v -0.51290727 -0.009067383 -0.061168212
v -0.016492538 0.043590773 -0.54318994
v -0.1676335 0.4833451 -0.06123453
v -0.0012130737 -0.0007525635 -0.57244706
v -0.016492538 0.043590773 -0.54318994
v 0.1485022 0.4889662 0.057525214
v -0.1676335 0.4833451 -0.06123453
v 0.03618988 0.027261887 -0.5432099
v 0.40546644 0.3056957 -0.064035185
v -0.0012130737 -0.0007525635 -0.57244706
v 0.5129077 -0.000637207 0.05749969
v 0.03729103 -0.027749404 -0.54319096
v 0.41700828 -0.29439306 -0.06177761
v 0.03618988 0.027261887 -0.5432099
v 0.40546644 0.3056957 -0.064035185
v -0.0012130737 -0.0007525635 -0.57244706
v 0.17267394 -0.48093817 0.057524357
v 0.41700828 -0.29439306 -0.06177761
v 0.03729103 -0.027749404 -0.54319096
v -0.15003021 -0.48896667 -0.062495667
v -0.014761963 -0.045451812 -0.5431769
v -0.0012130737 -0.0007525635 -0.57244706
vt 0.9351348 0.1646289
vt 0.9243074 0.16426422
vt 0.92939776 0.17402218
vt 0.9346896 0.00800487
vt 0.99380606 0.04186206
vt 0.8745626 0.03743757
vt 0.67385584 0.16252156
vt 0.6812729 0.0059607886
vt 0.62013733 0.037027296
vt 0.73997945 0.038120124
vt 0.6847079 0.16262305
vt 0.67919385 0.17214994
vt 0.42301667 0.16486366
vt 0.42823476 0.008446503
vt 0.3707004 0.039260846
vt 0.4862792 0.038918283
vt 0.43363017 0.1648644
vt 0.42831963 0.17450798
vt 0.7995663 0.16285804
vt 0.80553156 0.006450995
vt 0.7462802 0.0374916
vt 0.86463135 0.037952464
vt 0.81034386 0.16290094
vt 0.80492324 0.17247902
vt 0.5482986 0.16188712
vt 0.55452067 0.0054784985
vt 0.49528605 0.036403734
vt 0.61338216 0.037030037
vt 0.55905414 0.16194792
vt 0.55361784 0.17152447
vt 0.61054784 0.06135354
vt 0.6213787 0.061238576
vt 0.6158895 0.05169492
vt 0.61737686 0.21715936
vt 0.557921 0.18633673
vt 0.6760585 0.1849403
vt 0.7480728 0.061846737
vt 0.74158156 0.21767686
vt 0.80089176 0.18674853
vt 0.73726106 0.06177855
vt 0.68279827 0.18597968
vt 0.7427303 0.05218867
vt 0.36917913 0.061787497
vt 0.364206 0.21765351
vt 0.4231606 0.18619834
vt 0.35834858 0.06178998
vt 0.30533883 0.18579115
vt 0.36373085 0.052185792
vt 0.8657425 0.21794182
vt 0.86289126 0.06185217
vt 0.8085652 0.18587928
vt 0.8736959 0.06189074
vt 0.9264299 0.1860133
vt 0.86837935 0.052249547
vt 0.49391472 0.21706922
vt 0.55111235 0.18563572
vt 0.49728972 0.06139374
vt 0.43339276 0.18578996
vt 0.48649347 0.06140366
vt 0.4918313 0.051774908
vn -0.208174 -0.7037181 0.67929685
vn -0.2122247 -0.7023727 0.6794361
vn -0.1766665 -0.58977467 0.78800684
vn -0.22328198 -0.75619376 0.61507404
vn -0.20975718 -0.7602457 0.61484015
vn -0.2365267 -0.7520857 0.6151604
vn 0.5896006 0.4398083 0.67745095
vn 0.633468 0.47164083 0.6134111
vn 0.6372481 0.46678883 0.6132072
vn 0.6300695 0.47606492 0.6134938
vn 0.58963555 0.4403521 0.6770673
vn 0.49318624 0.36845952 0.7880386
vn 0.5970683 -0.42095658 0.68286526
vn 0.64278185 -0.45537513 0.61600727
vn 0.6454656 -0.4513779 0.61614305
vn 0.64036703 -0.458777 0.6159982
vn 0.5969468 -0.41995782 0.6835861
vn 0.49993506 -0.35191447 0.7913413
vn -0.733297 -0.012741362 0.67978907
vn -0.7867121 -0.013474731 0.61717296
vn -0.7871308 -0.0011943507 0.6167849
vn -0.7863874 -0.024488887 0.6172481
vn -0.7343802 -0.012997258 0.6786139
vn -0.6137348 -0.010931548 0.7894365
vn -0.23760824 0.69369847 0.6799445
vn -0.2556138 0.74413335 0.61719304
vn -0.24502084 0.7479824 0.6168365
vn -0.26509422 0.74076223 0.6172489
vn -0.23787643 0.6948359 0.6786883
vn -0.19858459 0.5805515 0.7896354
vn -0.5833006 -0.43961757 -0.68300575
vn -0.5808439 -0.4424477 -0.6832718
vn -0.4876904 -0.3699747 -0.7907444
vn -0.62707746 -0.47248638 -0.6192984
vn -0.6345469 -0.46258444 -0.61916554
vn -0.6195902 -0.48224264 -0.61931413
vn -0.5985798 0.4173867 -0.6837328
vn -0.64292485 0.45073566 -0.6192617
vn -0.6493174 0.4415456 -0.61921275
vn -0.59665924 0.42017284 -0.6837051
vn -0.6364582 0.45988813 -0.6192123
vn -0.4999658 0.3503011 -0.79203755
vn 0.21399157 0.69818974 -0.6831827
vn 0.22970088 0.75076354 -0.61934775
vn 0.21921247 0.75399244 -0.6192263
vn 0.21706676 0.6969377 -0.683491
vn 0.2401074 0.7474774 -0.6193754
vn 0.18080083 0.58428836 -0.79114985
vn 0.78395194 0.01239474 -0.6206978
vn 0.7289328 0.011485105 -0.68448895
vn 0.7840823 -0.003963418 -0.6206443
vn 0.7284876 0.016385647 -0.68486285
vn 0.7836375 0.028647356 -0.6205574
vn 0.6102437 0.011942408 -0.79212373
vn 0.25584793 -0.7431376 -0.61829466
vn 0.26360917 -0.7405743 -0.61810994
vn 0.23615764 -0.69197357 -0.6822039
vn 0.24876934 -0.74549526 -0.618345
vn 0.23527798 -0.6923649 -0.68211085
vn 0.19639726 -0.5781254 -0.7919591
g Trapezohedron_0
f 3/3/3 2/2/2 1/1/1
f 1/1/1 2/2/2 4/4/4
f 5/5/5 1/1/1 4/4/4
f 2/2/2 6/6/6 4/4/4
f 9/9/9 8/8/8 7/7/7
f 8/8/8 10/10/10 7/7/7
f 10/10/10 11/11/11 7/7/7
f 11/11/11 12/12/12 7/7/7
f 15/15/15 14/14/14 13/13/13
f 14/14/14 16/16/16 13/13/13
f 16/16/16 17/17/17 13/13/13
f 17/17/17 18/18/18 13/13/13
f 21/21/21 20/20/20 19/19/19
f 20/20/20 22/22/22 19/19/19
f 22/22/22 23/23/23 19/19/19
f 19/19/19 23/23/23 24/24/24
f 27/27/27 26/26/26 25/25/25
f 26/26/26 28/28/28 25/25/25
f 28/28/28 29/29/29 25/25/25
f 25/25/25 29/29/29 30/30/30
f 33/33/33 32/32/32 31/31/31
f 32/32/32 34/34/34 31/31/31
f 31/31/31 34/34/34 35/35/35
f 36/36/36 34/34/34 32/32/32
f 39/39/39 38/38/38 37/37/37
f 37/37/37 38/38/38 40/40/40
f 40/40/40 38/38/38 41/41/41
f 40/40/40 42/42/42 37/37/37
f 45/45/45 44/44/44 43/43/43
f 43/43/43 44/44/44 46/46/46
f 46/46/46 44/44/44 47/47/47
f 46/46/46 48/48/48 43/43/43
f 51/51/51 50/50/50 49/49/49
f 50/50/50 52/52/52 49/49/49
f 52/52/52 53/53/53 49/49/49
f 52/52/52 50/50/50 54/54/54
f 57/57/57 56/56/56 55/55/55
f 58/58/58 57/57/57 55/55/55
f 59/59/59 57/57/57 58/58/58
f 57/57/57 59/59/59 60/60/60
